<mxfile host="app.diagrams.net" modified="2024-02-07T08:17:55.028Z" agent="Mozilla/5.0 (Windows NT 10.0; Win64; x64) AppleWebKit/537.36 (KHTML, like Gecko) Chrome/120.0.0.0 Safari/537.36 Edg/120.0.0.0" version="23.1.1" etag="5UKKj_YeiLqvtLW0hF0m" type="github">
  <diagram name="第 1 页" id="aWF50hQwLIGR8xa2lmi7">
    <mxGraphModel>
      <root>
        <mxCell id="0" />
        <mxCell id="1" parent="0" />
      </root>
    </mxGraphModel>
  </diagram>
</mxfile>
